  0
SECTION
  2
HEADER
  9
$ACADVER
  1
AC1024
  9
$ACADMAINTVER
 70
6
  9
$DWGCODEPAGE
  3
ANSI_1252
  9
$LASTSAVEDBY
  1
ezdxf
  9
$INSBASE
 10
0.0
 20
0.0
 30
0.0
  9
$EXTMIN
 10
1e+20
 20
1e+20
 30
1e+20
  9
$EXTMAX
 10
-1e+20
 20
-1e+20
 30
-1e+20
  9
$LIMMIN
 10
0.0
 20
0.0
  9
$LIMMAX
 10
420.0
 20
297.0
  9
$ORTHOMODE
 70
0
  9
$REGENMODE
 70
1
  9
$FILLMODE
 70
1
  9
$QTEXTMODE
 70
0
  9
$MIRRTEXT
 70
1
  9
$LTSCALE
 40
1.0
  9
$ATTMODE
 70
1
  9
$TEXTSIZE
 40
2.5
  9
$TRACEWID
 40
1.0
  9
$TEXTSTYLE
  7
Standard
  9
$CLAYER
  8
0
  9
$CELTYPE
  6
ByLayer
  9
$CECOLOR
 62
256
  9
$CELTSCALE
 40
1.0
  9
$DISPSILH
 70
0
  9
$DIMSCALE
 40
1.0
  9
$DIMASZ
 40
2.5
  9
$DIMEXO
 40
0.625
  9
$DIMDLI
 40
3.75
  9
$DIMRND
 40
0.0
  9
$DIMDLE
 40
0.0
  9
$DIMEXE
 40
1.25
  9
$DIMTP
 40
0.0
  9
$DIMTM
 40
0.0
  9
$DIMTXT
 40
2.5
  9
$DIMCEN
 40
2.5
  9
$DIMTSZ
 40
0.0
  9
$DIMTOL
 70
0
  9
$DIMLIM
 70
0
  9
$DIMTIH
 70
0
  9
$DIMTOH
 70
0
  9
$DIMSE1
 70
0
  9
$DIMSE2
 70
0
  9
$DIMTAD
 70
1
  9
$DIMZIN
 70
8
  9
$DIMBLK
  1

  9
$DIMASO
 70
1
  9
$DIMSHO
 70
1
  9
$DIMPOST
  1

  9
$DIMAPOST
  1

  9
$DIMALT
 70
0
  9
$DIMALTD
 70
3
  9
$DIMALTF
 40
0.03937007874
  9
$DIMLFAC
 40
1.0
  9
$DIMTOFL
 70
1
  9
$DIMTVP
 40
0.0
  9
$DIMTIX
 70
0
  9
$DIMSOXD
 70
0
  9
$DIMSAH
 70
0
  9
$DIMBLK1
  1

  9
$DIMBLK2
  1

  9
$DIMSTYLE
  2
ISO-25
  9
$DIMCLRD
 70
0
  9
$DIMCLRE
 70
0
  9
$DIMCLRT
 70
0
  9
$DIMTFAC
 40
1.0
  9
$DIMGAP
 40
0.625
  9
$DIMJUST
 70
0
  9
$DIMSD1
 70
0
  9
$DIMSD2
 70
0
  9
$DIMTOLJ
 70
0
  9
$DIMTZIN
 70
8
  9
$DIMALTZ
 70
0
  9
$DIMALTTZ
 70
0
  9
$DIMUPT
 70
0
  9
$DIMDEC
 70
2
  9
$DIMTDEC
 70
2
  9
$DIMALTU
 70
2
  9
$DIMALTTD
 70
3
  9
$DIMTXSTY
  7
Standard
  9
$DIMAUNIT
 70
0
  9
$DIMADEC
 70
0
  9
$DIMALTRND
 40
0.0
  9
$DIMAZIN
 70
0
  9
$DIMDSEP
 70
44
  9
$DIMATFIT
 70
3
  9
$DIMFRAC
 70
0
  9
$DIMLDRBLK
  1

  9
$DIMLUNIT
 70
2
  9
$DIMLWD
 70
-2
  9
$DIMLWE
 70
-2
  9
$DIMTMOVE
 70
0
  9
$DIMFXL
 40
1.0
  9
$DIMFXLON
 70
0
  9
$DIMJOGANG
 40
0.785398163397
  9
$DIMTFILL
 70
0
  9
$DIMTFILLCLR
 70
0
  9
$DIMARCSYM
 70
0
  9
$DIMLTYPE
  6

  9
$DIMLTEX1
  6

  9
$DIMLTEX2
  6

  9
$DIMTXTDIRECTION
 70
0
  9
$LUNITS
 70
2
  9
$LUPREC
 70
4
  9
$SKETCHINC
 40
1.0
  9
$FILLETRAD
 40
10.0
  9
$AUNITS
 70
0
  9
$AUPREC
 70
2
  9
$MENU
  1
.
  9
$ELEVATION
 40
0.0
  9
$PELEVATION
 40
0.0
  9
$THICKNESS
 40
0.0
  9
$LIMCHECK
 70
0
  9
$CHAMFERA
 40
0.0
  9
$CHAMFERB
 40
0.0
  9
$CHAMFERC
 40
0.0
  9
$CHAMFERD
 40
0.0
  9
$SKPOLY
 70
0
  9
$TDCREATE
 40
2461137.528252315
  9
$TDUCREATE
 40
2458532.153996898
  9
$TDUPDATE
 40
2461137.528252315
  9
$TDUUPDATE
 40
2458532.1544311
  9
$TDINDWG
 40
0.0
  9
$TDUSRTIMER
 40
0.0
  9
$USRTIMER
 70
1
  9
$ANGBASE
 50
0.0
  9
$ANGDIR
 70
0
  9
$PDMODE
 70
0
  9
$PDSIZE
 40
0.0
  9
$PLINEWID
 40
0.0
  9
$SPLFRAME
 70
0
  9
$SPLINETYPE
 70
6
  9
$SPLINESEGS
 70
8
  9
$HANDSEED
  5
12D
  9
$SURFTAB1
 70
6
  9
$SURFTAB2
 70
6
  9
$SURFTYPE
 70
6
  9
$SURFU
 70
6
  9
$SURFV
 70
6
  9
$UCSBASE
  2

  9
$UCSNAME
  2

  9
$UCSORG
 10
0.0
 20
0.0
 30
0.0
  9
$UCSXDIR
 10
1.0
 20
0.0
 30
0.0
  9
$UCSYDIR
 10
0.0
 20
1.0
 30
0.0
  9
$UCSORTHOREF
  2

  9
$UCSORTHOVIEW
 70
0
  9
$UCSORGTOP
 10
0.0
 20
0.0
 30
0.0
  9
$UCSORGBOTTOM
 10
0.0
 20
0.0
 30
0.0
  9
$UCSORGLEFT
 10
0.0
 20
0.0
 30
0.0
  9
$UCSORGRIGHT
 10
0.0
 20
0.0
 30
0.0
  9
$UCSORGFRONT
 10
0.0
 20
0.0
 30
0.0
  9
$UCSORGBACK
 10
0.0
 20
0.0
 30
0.0
  9
$PUCSBASE
  2

  9
$PUCSNAME
  2

  9
$PUCSORG
 10
0.0
 20
0.0
 30
0.0
  9
$PUCSXDIR
 10
1.0
 20
0.0
 30
0.0
  9
$PUCSYDIR
 10
0.0
 20
1.0
 30
0.0
  9
$PUCSORTHOREF
  2

  9
$PUCSORTHOVIEW
 70
0
  9
$PUCSORGTOP
 10
0.0
 20
0.0
 30
0.0
  9
$PUCSORGBOTTOM
 10
0.0
 20
0.0
 30
0.0
  9
$PUCSORGLEFT
 10
0.0
 20
0.0
 30
0.0
  9
$PUCSORGRIGHT
 10
0.0
 20
0.0
 30
0.0
  9
$PUCSORGFRONT
 10
0.0
 20
0.0
 30
0.0
  9
$PUCSORGBACK
 10
0.0
 20
0.0
 30
0.0
  9
$USERI1
 70
0
  9
$USERI2
 70
0
  9
$USERI3
 70
0
  9
$USERI4
 70
0
  9
$USERI5
 70
0
  9
$USERR1
 40
0.0
  9
$USERR2
 40
0.0
  9
$USERR3
 40
0.0
  9
$USERR4
 40
0.0
  9
$USERR5
 40
0.0
  9
$WORLDVIEW
 70
1
  9
$SHADEDGE
 70
3
  9
$SHADEDIF
 70
70
  9
$TILEMODE
 70
1
  9
$MAXACTVP
 70
64
  9
$PINSBASE
 10
0.0
 20
0.0
 30
0.0
  9
$PLIMCHECK
 70
0
  9
$PEXTMIN
 10
1e+20
 20
1e+20
 30
1e+20
  9
$PEXTMAX
 10
-1e+20
 20
-1e+20
 30
-1e+20
  9
$PLIMMIN
 10
0.0
 20
0.0
  9
$PLIMMAX
 10
420.0
 20
297.0
  9
$UNITMODE
 70
0
  9
$VISRETAIN
 70
1
  9
$PLINEGEN
 70
0
  9
$PSLTSCALE
 70
1
  9
$TREEDEPTH
 70
3020
  9
$CMLSTYLE
  2
Standard
  9
$CMLJUST
 70
0
  9
$CMLSCALE
 40
20.0
  9
$PROXYGRAPHICS
 70
1
  9
$MEASUREMENT
 70
1
  9
$CELWEIGHT
370
-1
  9
$ENDCAPS
280
0
  9
$JOINSTYLE
280
0
  9
$LWDISPLAY
290
0
  9
$INSUNITS
 70
6
  9
$HYPERLINKBASE
  1

  9
$STYLESHEET
  1

  9
$XEDIT
290
1
  9
$CEPSNTYPE
380
0
  9
$PSTYLEMODE
290
1
  9
$FINGERPRINTGUID
  2
{E2D9CEB6-C72B-46AC-9824-63E2AE805890}
  9
$VERSIONGUID
  2
{8BD28B5F-A5B3-4811-8820-7BD669A81EDE}
  9
$EXTNAMES
290
1
  9
$PSVPSCALE
 40
0.0
  9
$OLESTARTUP
290
0
  9
$SORTENTS
280
127
  9
$INDEXCTL
280
0
  9
$HIDETEXT
280
1
  9
$XCLIPFRAME
280
1
  9
$HALOGAP
280
0
  9
$OBSCOLOR
 70
257
  9
$OBSLTYPE
280
0
  9
$INTERSECTIONDISPLAY
280
0
  9
$INTERSECTIONCOLOR
 70
257
  9
$DIMASSOC
280
2
  9
$PROJECTNAME
  1

  9
$CAMERADISPLAY
290
0
  9
$LENSLENGTH
 40
50.0
  9
$CAMERAHEIGHT
 40
0.0
  9
$STEPSPERSEC
 40
24.0
  9
$STEPSIZE
 40
100.0
  9
$3DDWFPREC
 40
2.0
  9
$PSOLWIDTH
 40
0.005
  9
$PSOLHEIGHT
 40
0.08
  9
$LOFTANG1
 40
1.570796326795
  9
$LOFTANG2
 40
1.570796326795
  9
$LOFTMAG1
 40
0.0
  9
$LOFTMAG2
 40
0.0
  9
$LOFTPARAM
 70
7
  9
$LOFTNORMALS
280
1
  9
$LATITUDE
 40
37.795
  9
$LONGITUDE
 40
-122.394
  9
$NORTHDIRECTION
 40
0.0
  9
$TIMEZONE
 70
-8000
  9
$LIGHTGLYPHDISPLAY
280
1
  9
$TILEMODELIGHTSYNCH
280
1
  9
$CMATERIAL
347
20
  9
$SOLIDHIST
280
0
  9
$SHOWHIST
280
1
  9
$DWFFRAME
280
2
  9
$DGNFRAME
280
2
  9
$REALWORLDSCALE
290
1
  9
$INTERFERECOLOR
 62
256
  9
$CSHADOW
280
0
  9
$SHADOWPLANELOCATION
 40
0.0
  0
ENDSEC
  0
SECTION
  2
CLASSES
  0
CLASS
  1
ACDBDICTIONARYWDFLT
  2
AcDbDictionaryWithDefault
  3
ObjectDBX Classes
 90
0
 91
0
280
0
281
0
  0
CLASS
  1
SUN
  2
AcDbSun
  3
SCENEOE
 90
1153
 91
0
280
0
281
0
  0
CLASS
  1
VISUALSTYLE
  2
AcDbVisualStyle
  3
ObjectDBX Classes
 90
4095
 91
0
280
0
281
0
  0
CLASS
  1
MATERIAL
  2
AcDbMaterial
  3
ObjectDBX Classes
 90
1153
 91
0
280
0
281
0
  0
CLASS
  1
SCALE
  2
AcDbScale
  3
ObjectDBX Classes
 90
1153
 91
0
280
0
281
0
  0
CLASS
  1
TABLESTYLE
  2
AcDbTableStyle
  3
ObjectDBX Classes
 90
4095
 91
0
280
0
281
0
  0
CLASS
  1
MLEADERSTYLE
  2
AcDbMLeaderStyle
  3
ACDB_MLEADERSTYLE_CLASS
 90
4095
 91
0
280
0
281
0
  0
CLASS
  1
DICTIONARYVAR
  2
AcDbDictionaryVar
  3
ObjectDBX Classes
 90
0
 91
0
280
0
281
0
  0
CLASS
  1
CELLSTYLEMAP
  2
AcDbCellStyleMap
  3
ObjectDBX Classes
 90
1152
 91
0
280
0
281
0
  0
CLASS
  1
MENTALRAYRENDERSETTINGS
  2
AcDbMentalRayRenderSettings
  3
SCENEOE
 90
1024
 91
0
280
0
281
0
  0
CLASS
  1
ACDBDETAILVIEWSTYLE
  2
AcDbDetailViewStyle
  3
ObjectDBX Classes
 90
1025
 91
0
280
0
281
0
  0
CLASS
  1
ACDBSECTIONVIEWSTYLE
  2
AcDbSectionViewStyle
  3
ObjectDBX Classes
 90
1025
 91
0
280
0
281
0
  0
CLASS
  1
RASTERVARIABLES
  2
AcDbRasterVariables
  3
ISM
 90
0
 91
0
280
0
281
0
  0
CLASS
  1
LAYOUT
  2
AcDbLayout
  3
ObjectDBX Classes
 90
0
 91
0
280
0
281
0
  0
CLASS
  1
ACDBPLACEHOLDER
  2
AcDbPlaceHolder
  3
ObjectDBX Classes
 90
0
 91
0
280
0
281
0
  0
ENDSEC
  0
SECTION
  2
TABLES
  0
TABLE
  2
VPORT
  5
8
330
0
100
AcDbSymbolTable
 70
1
  0
VPORT
  5
23
330
8
100
AcDbSymbolTableRecord
100
AcDbViewportTableRecord
  2
*Active
 70
0
 10
0.0
 20
0.0
 11
1.0
 21
1.0
 12
0.0
 22
0.0
 13
0.0
 23
0.0
 14
0.5
 24
0.5
 15
0.5
 25
0.5
 16
0.0
 26
0.0
 36
1.0
 17
0.0
 27
0.0
 37
0.0
 40
1000.0
 41
1.34
 42
50.0
 43
0.0
 44
0.0
 50
0.0
 51
0.0
 71
0
 72
1000
 73
1
 74
3
 75
0
 76
0
 77
0
 78
0
281
0
 65
0
146
0.0
  0
ENDTAB
  0
TABLE
  2
LTYPE
  5
2
330
0
100
AcDbSymbolTable
 70
3
  0
LTYPE
  5
24
330
2
100
AcDbSymbolTableRecord
100
AcDbLinetypeTableRecord
  2
ByBlock
 70
0
  3

 72
65
 73
0
 40
0.0
  0
LTYPE
  5
25
330
2
100
AcDbSymbolTableRecord
100
AcDbLinetypeTableRecord
  2
ByLayer
 70
0
  3

 72
65
 73
0
 40
0.0
  0
LTYPE
  5
26
330
2
100
AcDbSymbolTableRecord
100
AcDbLinetypeTableRecord
  2
Continuous
 70
0
  3

 72
65
 73
0
 40
0.0
  0
ENDTAB
  0
TABLE
  2
LAYER
  5
1
330
0
100
AcDbSymbolTable
 70
14
  0
LAYER
  5
27
330
1
100
AcDbSymbolTableRecord
100
AcDbLayerTableRecord
  2
0
 70
0
 62
7
  6
Continuous
370
-3
390
13
347
21
  0
LAYER
  5
28
330
1
100
AcDbSymbolTableRecord
100
AcDbLayerTableRecord
  2
Defpoints
 70
0
 62
7
  6
Continuous
290
0
370
-3
390
13
347
21
  0
LAYER
  5
2F
330
1
100
AcDbSymbolTableRecord
100
AcDbLayerTableRecord
  2
MUROS
 70
0
 62
7
  6
Continuous
370
50
390
13
347
21
  0
LAYER
  5
30
330
1
100
AcDbSymbolTableRecord
100
AcDbLayerTableRecord
  2
MUROS_INT
 70
0
 62
9
  6
Continuous
370
30
390
13
347
21
  0
LAYER
  5
31
330
1
100
AcDbSymbolTableRecord
100
AcDbLayerTableRecord
  2
COTAS
 70
0
 62
3
  6
Continuous
370
13
390
13
347
21
  0
LAYER
  5
32
330
1
100
AcDbSymbolTableRecord
100
AcDbLayerTableRecord
  2
TEXTOS
 70
0
 62
5
  6
Continuous
370
13
390
13
347
21
  0
LAYER
  5
33
330
1
100
AcDbSymbolTableRecord
100
AcDbLayerTableRecord
  2
PUERTAS
 70
0
 62
1
  6
Continuous
370
25
390
13
347
21
  0
LAYER
  5
34
330
1
100
AcDbSymbolTableRecord
100
AcDbLayerTableRecord
  2
VENTANAS
 70
0
 62
4
  6
Continuous
370
25
390
13
347
21
  0
LAYER
  5
35
330
1
100
AcDbSymbolTableRecord
100
AcDbLayerTableRecord
  2
EJES
 70
0
 62
2
  6
Continuous
370
13
390
13
347
21
  0
LAYER
  5
36
330
1
100
AcDbSymbolTableRecord
100
AcDbLayerTableRecord
  2
CAJETIN
 70
0
 62
7
  6
Continuous
370
25
390
13
347
21
  0
LAYER
  5
37
330
1
100
AcDbSymbolTableRecord
100
AcDbLayerTableRecord
  2
PISCINA
 70
0
 62
150
  6
Continuous
370
30
390
13
347
21
  0
LAYER
  5
38
330
1
100
AcDbSymbolTableRecord
100
AcDbLayerTableRecord
  2
TERRAZA
 70
0
 62
8
  6
Continuous
370
13
390
13
347
21
  0
LAYER
  5
39
330
1
100
AcDbSymbolTableRecord
100
AcDbLayerTableRecord
  2
MOBILIARIO
 70
0
 62
8
  6
Continuous
370
13
390
13
347
21
  0
LAYER
  5
3A
330
1
100
AcDbSymbolTableRecord
100
AcDbLayerTableRecord
  2
ESCALERA
 70
0
 62
6
  6
Continuous
370
25
390
13
347
21
  0
ENDTAB
  0
TABLE
  2
STYLE
  5
5
330
0
100
AcDbSymbolTable
 70
1
  0
STYLE
  5
29
330
5
100
AcDbSymbolTableRecord
100
AcDbTextStyleTableRecord
  2
Standard
 70
0
 40
0.0
 41
1.0
 50
0.0
 71
0
 42
2.5
  3
txt
  4

  0
ENDTAB
  0
TABLE
  2
VIEW
  5
7
330
0
100
AcDbSymbolTable
 70
0
  0
ENDTAB
  0
TABLE
  2
UCS
  5
6
330
0
100
AcDbSymbolTable
 70
0
  0
ENDTAB
  0
TABLE
  2
APPID
  5
3
330
0
100
AcDbSymbolTable
 70
3
  0
APPID
  5
2A
330
3
100
AcDbSymbolTableRecord
100
AcDbRegAppTableRecord
  2
ACAD
 70
0
  0
APPID
  5
12A
330
3
100
AcDbSymbolTableRecord
100
AcDbRegAppTableRecord
  2
HATCHBACKGROUNDCOLOR
 70
0
  0
APPID
  5
12B
330
3
100
AcDbSymbolTableRecord
100
AcDbRegAppTableRecord
  2
EZDXF
 70
0
  0
ENDTAB
  0
TABLE
  2
DIMSTYLE
  5
4
330
0
100
AcDbSymbolTable
 70
1
100
AcDbDimStyleTable
  0
DIMSTYLE
105
2B
330
4
100
AcDbSymbolTableRecord
100
AcDbDimStyleTableRecord
  2
Standard
 70
0
 40
1.0
 41
2.5
 42
0.625
 43
3.75
 44
1.25
 45
0.0
 46
0.0
 47
0.0
 48
0.0
 49
2.5
140
2.5
141
2.5
142
0.0
143
0.03937007874
144
1.0
145
0.0
146
1.0
147
0.625
148
0.0
 69
0
 70
0
 71
0
 72
0
 73
0
 74
0
 75
0
 76
0
 77
1
 78
8
 79
3
170
0
171
3
172
1
173
0
174
0
175
0
176
0
177
0
178
0
179
2
271
2
272
2
273
2
274
3
275
0
276
0
277
2
278
44
279
0
280
0
281
0
282
0
283
0
284
8
285
0
286
0
288
0
289
3
290
0
371
-2
372
-2
  0
ENDTAB
  0
TABLE
  2
BLOCK_RECORD
  5
9
330
0
100
AcDbSymbolTable
 70
10
  0
BLOCK_RECORD
  5
17
330
9
100
AcDbSymbolTableRecord
100
AcDbBlockTableRecord
  2
*Model_Space
340
1A
 70
0
280
1
281
0
  0
BLOCK_RECORD
  5
1B
330
9
100
AcDbSymbolTableRecord
100
AcDbBlockTableRecord
  2
*Paper_Space
340
1E
 70
0
280
1
281
0
  0
BLOCK_RECORD
  5
97
330
9
100
AcDbSymbolTableRecord
100
AcDbBlockTableRecord
  2
*D1
340
0
 70
0
280
1
281
0
  0
BLOCK_RECORD
  5
9C
330
9
100
AcDbSymbolTableRecord
100
AcDbBlockTableRecord
  2
_CLOSEDFILLED
340
0
 70
0
280
1
281
0
  0
BLOCK_RECORD
  5
AB
330
9
100
AcDbSymbolTableRecord
100
AcDbBlockTableRecord
  2
*D2
340
0
 70
0
280
1
281
0
  0
BLOCK_RECORD
  5
BB
330
9
100
AcDbSymbolTableRecord
100
AcDbBlockTableRecord
  2
*D3
340
0
 70
0
280
1
281
0
  0
BLOCK_RECORD
  5
CB
330
9
100
AcDbSymbolTableRecord
100
AcDbBlockTableRecord
  2
*D4
340
0
 70
0
280
1
281
0
  0
BLOCK_RECORD
  5
DB
330
9
100
AcDbSymbolTableRecord
100
AcDbBlockTableRecord
  2
*D5
340
0
 70
0
280
1
281
0
  0
BLOCK_RECORD
  5
EB
330
9
100
AcDbSymbolTableRecord
100
AcDbBlockTableRecord
  2
*D6
340
0
 70
0
280
1
281
0
  0
BLOCK_RECORD
  5
FB
330
9
100
AcDbSymbolTableRecord
100
AcDbBlockTableRecord
  2
*D7
340
0
 70
0
280
1
281
0
  0
ENDTAB
  0
ENDSEC
  0
SECTION
  2
BLOCKS
  0
BLOCK
  5
18
330
17
100
AcDbEntity
  8
0
100
AcDbBlockBegin
  2
*Model_Space
 70
0
 10
0.0
 20
0.0
 30
0.0
  3
*Model_Space
  1

  0
ENDBLK
  5
19
330
17
100
AcDbEntity
  8
0
100
AcDbBlockEnd
  0
BLOCK
  5
1C
330
1B
100
AcDbEntity
  8
0
100
AcDbBlockBegin
  2
*Paper_Space
 70
0
 10
0.0
 20
0.0
 30
0.0
  3
*Paper_Space
  1

  0
ENDBLK
  5
1D
330
1B
100
AcDbEntity
  8
0
100
AcDbBlockEnd
  0
BLOCK
  5
98
330
97
100
AcDbEntity
  8
0
100
AcDbBlockBegin
  2
*D1
 70
1
 10
0.0
 20
0.0
 30
0.0
  3
*D1
  1

  0
LINE
  5
9A
330
97
100
AcDbEntity
  8
0
100
AcDbLine
 10
0.0
 20
0.0
 30
0.0
 11
0.0
 21
-7.5
 31
0.0
  0
LINE
  5
9B
330
97
100
AcDbEntity
  8
0
100
AcDbLine
 10
14.0
 20
0.0
 30
0.0
 11
14.0
 21
-7.5
 31
0.0
  0
INSERT
  5
A0
330
97
100
AcDbEntity
  8
COTAS
100
AcDbBlockReference
  2
_CLOSEDFILLED
 10
0.0
 20
-7.5
 30
0.0
 41
0.25
 42
0.25
 50
180.0
  0
INSERT
  5
A2
330
97
100
AcDbEntity
  8
COTAS
100
AcDbBlockReference
  2
_CLOSEDFILLED
 10
14.0
 20
-7.5
 30
0.0
 41
0.25
 42
0.25
  0
LINE
  5
A4
330
97
100
AcDbEntity
  8
0
100
AcDbLine
 10
0.25
 20
-7.5
 30
0.0
 11
6.849999999999999
 21
-7.5
 31
0.0
  0
LINE
  5
A5
330
97
100
AcDbEntity
  8
0
100
AcDbLine
 10
7.1499999999999995
 20
-7.5
 30
0.0
 11
13.75
 21
-7.5
 31
0.0
  0
MTEXT
  5
A6
330
97
100
AcDbEntity
  8
COTAS
100
AcDbMText
 10
7.0
 20
-7.5
 30
0.0
 40
0.15
 71
5
  1
14
  0
POINT
  5
A7
330
97
100
AcDbEntity
  8
Defpoints
100
AcDbPoint
 10
0.0
 20
-7.5
 30
0.0
  0
POINT
  5
A8
330
97
100
AcDbEntity
  8
Defpoints
100
AcDbPoint
 10
0.0
 20
0.0
 30
0.0
  0
POINT
  5
A9
330
97
100
AcDbEntity
  8
Defpoints
100
AcDbPoint
 10
14.0
 20
0.0
 30
0.0
  0
ENDBLK
  5
99
330
97
100
AcDbEntity
  8
0
100
AcDbBlockEnd
  0
BLOCK
  5
9D
330
9C
100
AcDbEntity
  8
0
100
AcDbBlockBegin
  2
_CLOSEDFILLED
 70
0
 10
0.0
 20
0.0
 30
0.0
  3
_CLOSEDFILLED
  1

  0
SOLID
  5
9F
330
9C
100
AcDbEntity
  8
0
  6
BYBLOCK
 62
0
100
AcDbTrace
 10
-1.0
 20
0.16439898372402537
 30
0.0
 11
0.0
 21
0.0
 31
0.0
 12
-1.0
 22
-0.16439898372402537
 32
0.0
 13
-1.0
 23
-0.16439898372402537
 33
0.0
  0
ENDBLK
  5
9E
330
9C
100
AcDbEntity
  8
0
100
AcDbBlockEnd
  0
BLOCK
  5
AC
330
AB
100
AcDbEntity
  8
0
100
AcDbBlockBegin
  2
*D2
 70
1
 10
0.0
 20
0.0
 30
0.0
  3
*D2
  1

  0
LINE
  5
AE
330
AB
100
AcDbEntity
  8
0
100
AcDbLine
 10
0.0
 20
0.0
 30
0.0
 11
-1.5
 21
0.0
 31
0.0
  0
LINE
  5
AF
330
AB
100
AcDbEntity
  8
0
100
AcDbLine
 10
0.0
 20
11.0
 30
0.0
 11
-1.5
 21
11.0
 31
0.0
  0
INSERT
  5
B0
330
AB
100
AcDbEntity
  8
COTAS
100
AcDbBlockReference
  2
_CLOSEDFILLED
 10
-1.5
 20
0.0
 30
0.0
 41
0.25
 42
0.25
 50
270.0
  0
INSERT
  5
B2
330
AB
100
AcDbEntity
  8
COTAS
100
AcDbBlockReference
  2
_CLOSEDFILLED
 10
-1.5
 20
11.0
 30
0.0
 41
0.25
 42
0.25
 50
90.0
  0
LINE
  5
B4
330
AB
100
AcDbEntity
  8
0
100
AcDbLine
 10
-1.5
 20
0.25
 30
0.0
 11
-1.5
 21
5.35
 31
0.0
  0
LINE
  5
B5
330
AB
100
AcDbEntity
  8
0
100
AcDbLine
 10
-1.5
 20
5.65
 30
0.0
 11
-1.5
 21
10.75
 31
0.0
  0
MTEXT
  5
B6
330
AB
100
AcDbEntity
  8
COTAS
100
AcDbMText
 10
-1.5
 20
5.5
 30
0.0
 40
0.15
 71
5
  1
11
 50
90.0
  0
POINT
  5
B7
330
AB
100
AcDbEntity
  8
Defpoints
100
AcDbPoint
 10
-1.5
 20
0.0
 30
0.0
  0
POINT
  5
B8
330
AB
100
AcDbEntity
  8
Defpoints
100
AcDbPoint
 10
0.0
 20
0.0
 30
0.0
  0
POINT
  5
B9
330
AB
100
AcDbEntity
  8
Defpoints
100
AcDbPoint
 10
0.0
 20
11.0
 30
0.0
  0
ENDBLK
  5
AD
330
AB
100
AcDbEntity
  8
0
100
AcDbBlockEnd
  0
BLOCK
  5
BC
330
BB
100
AcDbEntity
  8
0
100
AcDbBlockBegin
  2
*D3
 70
1
 10
0.0
 20
0.0
 30
0.0
  3
*D3
  1

  0
LINE
  5
BE
330
BB
100
AcDbEntity
  8
0
100
AcDbLine
 10
0.0
 20
11.0
 30
0.0
 11
0.0
 21
11.6
 31
0.0
  0
LINE
  5
BF
330
BB
100
AcDbEntity
  8
0
100
AcDbLine
 10
3.5
 20
11.0
 30
0.0
 11
3.5
 21
11.6
 31
0.0
  0
INSERT
  5
C0
330
BB
100
AcDbEntity
  8
COTAS
100
AcDbBlockReference
  2
_CLOSEDFILLED
 10
0.0
 20
11.6
 30
0.0
 41
0.25
 42
0.25
 50
180.0
  0
INSERT
  5
C2
330
BB
100
AcDbEntity
  8
COTAS
100
AcDbBlockReference
  2
_CLOSEDFILLED
 10
3.5
 20
11.6
 30
0.0
 41
0.25
 42
0.25
  0
LINE
  5
C4
330
BB
100
AcDbEntity
  8
0
100
AcDbLine
 10
0.25
 20
11.6
 30
0.0
 11
1.525
 21
11.6
 31
0.0
  0
LINE
  5
C5
330
BB
100
AcDbEntity
  8
0
100
AcDbLine
 10
1.975
 20
11.6
 30
0.0
 11
3.25
 21
11.6
 31
0.0
  0
MTEXT
  5
C6
330
BB
100
AcDbEntity
  8
COTAS
100
AcDbMText
 10
1.75
 20
11.6
 30
0.0
 40
0.15
 71
5
  1
3,5
  0
POINT
  5
C7
330
BB
100
AcDbEntity
  8
Defpoints
100
AcDbPoint
 10
0.0
 20
11.6
 30
0.0
  0
POINT
  5
C8
330
BB
100
AcDbEntity
  8
Defpoints
100
AcDbPoint
 10
0.0
 20
11.0
 30
0.0
  0
POINT
  5
C9
330
BB
100
AcDbEntity
  8
Defpoints
100
AcDbPoint
 10
3.5
 20
11.0
 30
0.0
  0
ENDBLK
  5
BD
330
BB
100
AcDbEntity
  8
0
100
AcDbBlockEnd
  0
BLOCK
  5
CC
330
CB
100
AcDbEntity
  8
0
100
AcDbBlockBegin
  2
*D4
 70
1
 10
0.0
 20
0.0
 30
0.0
  3
*D4
  1

  0
LINE
  5
CE
330
CB
100
AcDbEntity
  8
0
100
AcDbLine
 10
3.5
 20
11.0
 30
0.0
 11
3.5
 21
11.6
 31
0.0
  0
LINE
  5
CF
330
CB
100
AcDbEntity
  8
0
100
AcDbLine
 10
10.0
 20
11.0
 30
0.0
 11
10.0
 21
11.6
 31
0.0
  0
INSERT
  5
D0
330
CB
100
AcDbEntity
  8
COTAS
100
AcDbBlockReference
  2
_CLOSEDFILLED
 10
3.5
 20
11.6
 30
0.0
 41
0.25
 42
0.25
 50
180.0
  0
INSERT
  5
D2
330
CB
100
AcDbEntity
  8
COTAS
100
AcDbBlockReference
  2
_CLOSEDFILLED
 10
10.0
 20
11.6
 30
0.0
 41
0.25
 42
0.25
  0
LINE
  5
D4
330
CB
100
AcDbEntity
  8
0
100
AcDbLine
 10
3.75
 20
11.6
 30
0.0
 11
6.525
 21
11.6
 31
0.0
  0
LINE
  5
D5
330
CB
100
AcDbEntity
  8
0
100
AcDbLine
 10
6.975
 20
11.6
 30
0.0
 11
9.75
 21
11.6
 31
0.0
  0
MTEXT
  5
D6
330
CB
100
AcDbEntity
  8
COTAS
100
AcDbMText
 10
6.75
 20
11.6
 30
0.0
 40
0.15
 71
5
  1
6,5
  0
POINT
  5
D7
330
CB
100
AcDbEntity
  8
Defpoints
100
AcDbPoint
 10
3.5
 20
11.6
 30
0.0
  0
POINT
  5
D8
330
CB
100
AcDbEntity
  8
Defpoints
100
AcDbPoint
 10
3.5
 20
11.0
 30
0.0
  0
POINT
  5
D9
330
CB
100
AcDbEntity
  8
Defpoints
100
AcDbPoint
 10
10.0
 20
11.0
 30
0.0
  0
ENDBLK
  5
CD
330
CB
100
AcDbEntity
  8
0
100
AcDbBlockEnd
  0
BLOCK
  5
DC
330
DB
100
AcDbEntity
  8
0
100
AcDbBlockBegin
  2
*D5
 70
1
 10
0.0
 20
0.0
 30
0.0
  3
*D5
  1

  0
LINE
  5
DE
330
DB
100
AcDbEntity
  8
0
100
AcDbLine
 10
10.0
 20
11.0
 30
0.0
 11
10.0
 21
11.6
 31
0.0
  0
LINE
  5
DF
330
DB
100
AcDbEntity
  8
0
100
AcDbLine
 10
14.0
 20
11.0
 30
0.0
 11
14.0
 21
11.6
 31
0.0
  0
INSERT
  5
E0
330
DB
100
AcDbEntity
  8
COTAS
100
AcDbBlockReference
  2
_CLOSEDFILLED
 10
10.0
 20
11.6
 30
0.0
 41
0.25
 42
0.25
 50
180.0
  0
INSERT
  5
E2
330
DB
100
AcDbEntity
  8
COTAS
100
AcDbBlockReference
  2
_CLOSEDFILLED
 10
14.0
 20
11.6
 30
0.0
 41
0.25
 42
0.25
  0
LINE
  5
E4
330
DB
100
AcDbEntity
  8
0
100
AcDbLine
 10
10.25
 20
11.6
 30
0.0
 11
11.925
 21
11.6
 31
0.0
  0
LINE
  5
E5
330
DB
100
AcDbEntity
  8
0
100
AcDbLine
 10
12.075
 20
11.6
 30
0.0
 11
13.75
 21
11.6
 31
0.0
  0
MTEXT
  5
E6
330
DB
100
AcDbEntity
  8
COTAS
100
AcDbMText
 10
12.0
 20
11.6
 30
0.0
 40
0.15
 71
5
  1
4
  0
POINT
  5
E7
330
DB
100
AcDbEntity
  8
Defpoints
100
AcDbPoint
 10
10.0
 20
11.6
 30
0.0
  0
POINT
  5
E8
330
DB
100
AcDbEntity
  8
Defpoints
100
AcDbPoint
 10
10.0
 20
11.0
 30
0.0
  0
POINT
  5
E9
330
DB
100
AcDbEntity
  8
Defpoints
100
AcDbPoint
 10
14.0
 20
11.0
 30
0.0
  0
ENDBLK
  5
DD
330
DB
100
AcDbEntity
  8
0
100
AcDbBlockEnd
  0
BLOCK
  5
EC
330
EB
100
AcDbEntity
  8
0
100
AcDbBlockBegin
  2
*D6
 70
1
 10
0.0
 20
0.0
 30
0.0
  3
*D6
  1

  0
LINE
  5
EE
330
EB
100
AcDbEntity
  8
0
100
AcDbLine
 10
14.0
 20
0.0
 30
0.0
 11
14.6
 21
0.0
 31
0.0
  0
LINE
  5
EF
330
EB
100
AcDbEntity
  8
0
100
AcDbLine
 10
14.0
 20
6.0
 30
0.0
 11
14.6
 21
6.0
 31
0.0
  0
INSERT
  5
F0
330
EB
100
AcDbEntity
  8
COTAS
100
AcDbBlockReference
  2
_CLOSEDFILLED
 10
14.6
 20
0.0
 30
0.0
 41
0.25
 42
0.25
 50
270.0
  0
INSERT
  5
F2
330
EB
100
AcDbEntity
  8
COTAS
100
AcDbBlockReference
  2
_CLOSEDFILLED
 10
14.6
 20
6.0
 30
0.0
 41
0.25
 42
0.25
 50
90.0
  0
LINE
  5
F4
330
EB
100
AcDbEntity
  8
0
100
AcDbLine
 10
14.6
 20
0.25
 30
0.0
 11
14.6
 21
2.925
 31
0.0
  0
LINE
  5
F5
330
EB
100
AcDbEntity
  8
0
100
AcDbLine
 10
14.6
 20
3.075
 30
0.0
 11
14.6
 21
5.75
 31
0.0
  0
MTEXT
  5
F6
330
EB
100
AcDbEntity
  8
COTAS
100
AcDbMText
 10
14.6
 20
3.0
 30
0.0
 40
0.15
 71
5
  1
6
 50
90.0
  0
POINT
  5
F7
330
EB
100
AcDbEntity
  8
Defpoints
100
AcDbPoint
 10
14.6
 20
0.0
 30
0.0
  0
POINT
  5
F8
330
EB
100
AcDbEntity
  8
Defpoints
100
AcDbPoint
 10
14.0
 20
0.0
 30
0.0
  0
POINT
  5
F9
330
EB
100
AcDbEntity
  8
Defpoints
100
AcDbPoint
 10
14.0
 20
6.0
 30
0.0
  0
ENDBLK
  5
ED
330
EB
100
AcDbEntity
  8
0
100
AcDbBlockEnd
  0
BLOCK
  5
FC
330
FB
100
AcDbEntity
  8
0
100
AcDbBlockBegin
  2
*D7
 70
1
 10
0.0
 20
0.0
 30
0.0
  3
*D7
  1

  0
LINE
  5
FE
330
FB
100
AcDbEntity
  8
0
100
AcDbLine
 10
14.0
 20
6.0
 30
0.0
 11
14.6
 21
6.0
 31
0.0
  0
LINE
  5
FF
330
FB
100
AcDbEntity
  8
0
100
AcDbLine
 10
14.0
 20
11.0
 30
0.0
 11
14.6
 21
11.0
 31
0.0
  0
INSERT
  5
100
330
FB
100
AcDbEntity
  8
COTAS
100
AcDbBlockReference
  2
_CLOSEDFILLED
 10
14.6
 20
6.0
 30
0.0
 41
0.25
 42
0.25
 50
270.0
  0
INSERT
  5
102
330
FB
100
AcDbEntity
  8
COTAS
100
AcDbBlockReference
  2
_CLOSEDFILLED
 10
14.6
 20
11.0
 30
0.0
 41
0.25
 42
0.25
 50
90.0
  0
LINE
  5
104
330
FB
100
AcDbEntity
  8
0
100
AcDbLine
 10
14.6
 20
6.25
 30
0.0
 11
14.6
 21
8.425
 31
0.0
  0
LINE
  5
105
330
FB
100
AcDbEntity
  8
0
100
AcDbLine
 10
14.6
 20
8.575
 30
0.0
 11
14.6
 21
10.75
 31
0.0
  0
MTEXT
  5
106
330
FB
100
AcDbEntity
  8
COTAS
100
AcDbMText
 10
14.6
 20
8.5
 30
0.0
 40
0.15
 71
5
  1
5
 50
90.0
  0
POINT
  5
107
330
FB
100
AcDbEntity
  8
Defpoints
100
AcDbPoint
 10
14.6
 20
6.0
 30
0.0
  0
POINT
  5
108
330
FB
100
AcDbEntity
  8
Defpoints
100
AcDbPoint
 10
14.0
 20
6.0
 30
0.0
  0
POINT
  5
109
330
FB
100
AcDbEntity
  8
Defpoints
100
AcDbPoint
 10
14.0
 20
11.0
 30
0.0
  0
ENDBLK
  5
FD
330
FB
100
AcDbEntity
  8
0
100
AcDbBlockEnd
  0
ENDSEC
  0
SECTION
  2
ENTITIES
  0
LWPOLYLINE
  5
3B
330
17
100
AcDbEntity
  8
MUROS
100
AcDbPolyline
 90
5
 70
0
 10
0.0
 20
0.0
 10
14.0
 20
0.0
 10
14.0
 20
11.0
 10
0.0
 20
11.0
 10
0.0
 20
0.0
  0
LINE
  5
3C
330
17
100
AcDbEntity
  8
MUROS_INT
100
AcDbLine
 10
3.5
 20
0.0
 30
0.0
 11
3.5
 21
3.0
 31
0.0
  0
LINE
  5
3D
330
17
100
AcDbEntity
  8
MUROS_INT
100
AcDbLine
 10
3.5
 20
3.0
 30
0.0
 11
0.0
 21
3.0
 31
0.0
  0
TEXT
  5
3E
330
17
100
AcDbEntity
  8
TEXTOS
100
AcDbText
 10
1.75
 20
1.5
 30
0.0
 40
0.2
  1
VESTIBULO
 72
1
 11
1.75
 21
1.5
 31
0.0
100
AcDbText
 73
2
  0
TEXT
  5
3F
330
17
100
AcDbEntity
  8
TEXTOS
100
AcDbText
 10
1.75
 20
1.15
 30
0.0
 40
0.15
  1
6.3 m2
 72
1
 11
1.75
 21
1.15
 31
0.0
100
AcDbText
 73
2
  0
ARC
  5
40
330
17
100
AcDbEntity
  8
PUERTAS
100
AcDbCircle
 10
1.5
 20
0.0
 30
0.0
 40
1.0
100
AcDbArc
 50
0.0
 51
90.0
  0
LINE
  5
41
330
17
100
AcDbEntity
  8
MUROS_INT
100
AcDbLine
 10
3.5
 20
6.0
 30
0.0
 11
14.0
 21
6.0
 31
0.0
  0
LINE
  5
42
330
17
100
AcDbEntity
  8
MUROS_INT
100
AcDbLine
 10
3.5
 20
3.0
 30
0.0
 11
3.5
 21
6.0
 31
0.0
  0
TEXT
  5
43
330
17
100
AcDbEntity
  8
TEXTOS
100
AcDbText
 10
8.75
 20
3.8
 30
0.0
 40
0.2
  1
SALA - COMEDOR
 72
1
 11
8.75
 21
3.8
 31
0.0
100
AcDbText
 73
2
  0
TEXT
  5
44
330
17
100
AcDbEntity
  8
TEXTOS
100
AcDbText
 10
8.75
 20
3.4
 30
0.0
 40
0.15
  1
63.0 m2
 72
1
 11
8.75
 21
3.4
 31
0.0
100
AcDbText
 73
2
  0
LINE
  5
45
330
17
100
AcDbEntity
  8
VENTANAS
100
AcDbLine
 10
5.0
 20
0.0
 30
0.0
 11
9.0
 21
0.0
 31
0.0
  0
LINE
  5
46
330
17
100
AcDbEntity
  8
PUERTAS
100
AcDbLine
 10
5.0
 20
0.0
 30
0.0
 11
9.0
 21
0.0
 31
0.0
  0
LINE
  5
47
330
17
100
AcDbEntity
  8
PUERTAS
100
AcDbLine
 10
5.0
 20
-0.16
 30
0.0
 11
9.0
 21
-0.16
 31
0.0
  0
LINE
  5
48
330
17
100
AcDbEntity
  8
PUERTAS
100
AcDbLine
 10
5.0
 20
0.16
 30
0.0
 11
9.0
 21
0.16
 31
0.0
  0
LINE
  5
49
330
17
100
AcDbEntity
  8
VENTANAS
100
AcDbLine
 10
14.0
 20
1.0
 30
0.0
 11
14.0
 21
4.5
 31
0.0
  0
LINE
  5
4A
330
17
100
AcDbEntity
  8
PUERTAS
100
AcDbLine
 10
14.0
 20
1.0
 30
0.0
 11
14.0
 21
4.5
 31
0.0
  0
LINE
  5
4B
330
17
100
AcDbEntity
  8
PUERTAS
100
AcDbLine
 10
14.14
 20
1.0
 30
0.0
 11
14.14
 21
4.5
 31
0.0
  0
LINE
  5
4C
330
17
100
AcDbEntity
  8
PUERTAS
100
AcDbLine
 10
13.86
 20
1.0
 30
0.0
 11
13.86
 21
4.5
 31
0.0
  0
LINE
  5
4D
330
17
100
AcDbEntity
  8
MUROS
100
AcDbLine
 10
0.0
 20
3.0
 30
0.0
 11
0.0
 21
6.0
 31
0.0
  0
LINE
  5
4E
330
17
100
AcDbEntity
  8
MUROS_INT
100
AcDbLine
 10
3.5
 20
6.0
 30
0.0
 11
0.0
 21
6.0
 31
0.0
  0
TEXT
  5
4F
330
17
100
AcDbEntity
  8
TEXTOS
100
AcDbText
 10
1.75
 20
4.5
 30
0.0
 40
0.2
  1
COCINA
 72
1
 11
1.75
 21
4.5
 31
0.0
100
AcDbText
 73
2
  0
TEXT
  5
50
330
17
100
AcDbEntity
  8
TEXTOS
100
AcDbText
 10
1.75
 20
4.15
 30
0.0
 40
0.15
  1
10.5 m2
 72
1
 11
1.75
 21
4.15
 31
0.0
100
AcDbText
 73
2
  0
ARC
  5
51
330
17
100
AcDbEntity
  8
PUERTAS
100
AcDbCircle
 10
3.5
 20
3.5
 30
0.0
 40
0.9
100
AcDbArc
 50
90.0
 51
180.0
  0
LINE
  5
52
330
17
100
AcDbEntity
  8
VENTANAS
100
AcDbLine
 10
0.0
 20
3.8
 30
0.0
 11
0.0
 21
5.2
 31
0.0
  0
LINE
  5
53
330
17
100
AcDbEntity
  8
VENTANAS
100
AcDbLine
 10
0.08400000000000002
 20
3.8
 30
0.0
 11
0.08400000000000002
 21
5.2
 31
0.0
  0
LINE
  5
54
330
17
100
AcDbEntity
  8
VENTANAS
100
AcDbLine
 10
-0.08400000000000002
 20
3.8
 30
0.0
 11
-0.08400000000000002
 21
5.2
 31
0.0
  0
LWPOLYLINE
  5
55
330
17
100
AcDbEntity
  8
MOBILIARIO
100
AcDbPolyline
 90
5
 70
0
 10
0.3
 20
3.2
 10
3.2
 20
3.2
 10
3.2
 20
3.6
 10
0.3
 20
3.6
 10
0.3
 20
3.2
  0
TEXT
  5
56
330
17
100
AcDbEntity
  8
MOBILIARIO
100
AcDbText
 10
1.75
 20
3.4
 30
0.0
 40
0.1
  1
mesada
 72
1
 11
1.75
 21
3.4
 31
0.0
100
AcDbText
 73
2
  0
LINE
  5
57
330
17
100
AcDbEntity
  8
MUROS_INT
100
AcDbLine
 10
10.0
 20
6.0
 30
0.0
 11
10.0
 21
8.5
 31
0.0
  0
LINE
  5
58
330
17
100
AcDbEntity
  8
MUROS_INT
100
AcDbLine
 10
10.0
 20
8.5
 30
0.0
 11
14.0
 21
8.5
 31
0.0
  0
TEXT
  5
59
330
17
100
AcDbEntity
  8
TEXTOS
100
AcDbText
 10
12.0
 20
7.25
 30
0.0
 40
0.2
  1
ESTUDIO
 72
1
 11
12.0
 21
7.25
 31
0.0
100
AcDbText
 73
2
  0
TEXT
  5
5A
330
17
100
AcDbEntity
  8
TEXTOS
100
AcDbText
 10
12.0
 20
6.9
 30
0.0
 40
0.15
  1
10.0 m2
 72
1
 11
12.0
 21
6.9
 31
0.0
100
AcDbText
 73
2
  0
ARC
  5
5B
330
17
100
AcDbEntity
  8
PUERTAS
100
AcDbCircle
 10
10.0
 20
7.0
 30
0.0
 40
0.9
100
AcDbArc
 50
0.0
 51
90.0
  0
LINE
  5
5C
330
17
100
AcDbEntity
  8
VENTANAS
100
AcDbLine
 10
14.0
 20
6.5
 30
0.0
 11
14.0
 21
8.0
 31
0.0
  0
LINE
  5
5D
330
17
100
AcDbEntity
  8
VENTANAS
100
AcDbLine
 10
14.09
 20
6.5
 30
0.0
 11
14.09
 21
8.0
 31
0.0
  0
LINE
  5
5E
330
17
100
AcDbEntity
  8
VENTANAS
100
AcDbLine
 10
13.91
 20
6.5
 30
0.0
 11
13.91
 21
8.0
 31
0.0
  0
LINE
  5
5F
330
17
100
AcDbEntity
  8
MUROS_INT
100
AcDbLine
 10
10.0
 20
8.5
 30
0.0
 11
10.0
 21
11.0
 31
0.0
  0
LINE
  5
60
330
17
100
AcDbEntity
  8
MUROS_INT
100
AcDbLine
 10
10.0
 20
8.5
 30
0.0
 11
12.5
 21
8.5
 31
0.0
  0
LINE
  5
61
330
17
100
AcDbEntity
  8
MUROS_INT
100
AcDbLine
 10
12.5
 20
8.5
 30
0.0
 11
12.5
 21
11.0
 31
0.0
  0
TEXT
  5
62
330
17
100
AcDbEntity
  8
TEXTOS
100
AcDbText
 10
11.25
 20
9.75
 30
0.0
 40
0.2
  1
BAÑO
 72
1
 11
11.25
 21
9.75
 31
0.0
100
AcDbText
 73
2
  0
TEXT
  5
63
330
17
100
AcDbEntity
  8
TEXTOS
100
AcDbText
 10
11.25
 20
9.4
 30
0.0
 40
0.15
  1
6.3 m2
 72
1
 11
11.25
 21
9.4
 31
0.0
100
AcDbText
 73
2
  0
ARC
  5
64
330
17
100
AcDbEntity
  8
PUERTAS
100
AcDbCircle
 10
10.5
 20
8.5
 30
0.0
 40
0.7
100
AcDbArc
 50
270.0
 51
360.0
  0
LINE
  5
65
330
17
100
AcDbEntity
  8
VENTANAS
100
AcDbLine
 10
10.5
 20
11.0
 30
0.0
 11
12.0
 21
11.0
 31
0.0
  0
LINE
  5
66
330
17
100
AcDbEntity
  8
VENTANAS
100
AcDbLine
 10
10.5
 20
10.91
 30
0.0
 11
12.0
 21
10.91
 31
0.0
  0
LINE
  5
67
330
17
100
AcDbEntity
  8
VENTANAS
100
AcDbLine
 10
10.5
 20
11.09
 30
0.0
 11
12.0
 21
11.09
 31
0.0
  0
TEXT
  5
68
330
17
100
AcDbEntity
  8
TEXTOS
100
AcDbText
 10
13.25
 20
9.75
 30
0.0
 40
0.2
  1
LAVANDERIA
 72
1
 11
13.25
 21
9.75
 31
0.0
100
AcDbText
 73
2
  0
TEXT
  5
69
330
17
100
AcDbEntity
  8
TEXTOS
100
AcDbText
 10
13.25
 20
9.4
 30
0.0
 40
0.15
  1
3.8 m2
 72
1
 11
13.25
 21
9.4
 31
0.0
100
AcDbText
 73
2
  0
ARC
  5
6A
330
17
100
AcDbEntity
  8
PUERTAS
100
AcDbCircle
 10
12.5
 20
9.0
 30
0.0
 40
0.7
100
AcDbArc
 50
0.0
 51
90.0
  0
LWPOLYLINE
  5
6B
330
17
100
AcDbEntity
  8
ESCALERA
100
AcDbPolyline
 90
5
 70
0
 10
0.0
 20
6.0
 10
1.5
 20
6.0
 10
1.5
 20
9.5
 10
0.0
 20
9.5
 10
0.0
 20
6.0
  0
LINE
  5
6C
330
17
100
AcDbEntity
  8
ESCALERA
100
AcDbLine
 10
0.0
 20
6.0
 30
0.0
 11
1.5
 21
6.0
 31
0.0
  0
LINE
  5
6D
330
17
100
AcDbEntity
  8
ESCALERA
100
AcDbLine
 10
0.0
 20
6.25
 30
0.0
 11
1.5
 21
6.25
 31
0.0
  0
LINE
  5
6E
330
17
100
AcDbEntity
  8
ESCALERA
100
AcDbLine
 10
0.0
 20
6.5
 30
0.0
 11
1.5
 21
6.5
 31
0.0
  0
LINE
  5
6F
330
17
100
AcDbEntity
  8
ESCALERA
100
AcDbLine
 10
0.0
 20
6.75
 30
0.0
 11
1.5
 21
6.75
 31
0.0
  0
LINE
  5
70
330
17
100
AcDbEntity
  8
ESCALERA
100
AcDbLine
 10
0.0
 20
7.0
 30
0.0
 11
1.5
 21
7.0
 31
0.0
  0
LINE
  5
71
330
17
100
AcDbEntity
  8
ESCALERA
100
AcDbLine
 10
0.0
 20
7.25
 30
0.0
 11
1.5
 21
7.25
 31
0.0
  0
LINE
  5
72
330
17
100
AcDbEntity
  8
ESCALERA
100
AcDbLine
 10
0.0
 20
7.5
 30
0.0
 11
1.5
 21
7.5
 31
0.0
  0
LINE
  5
73
330
17
100
AcDbEntity
  8
ESCALERA
100
AcDbLine
 10
0.0
 20
7.75
 30
0.0
 11
1.5
 21
7.75
 31
0.0
  0
LINE
  5
74
330
17
100
AcDbEntity
  8
ESCALERA
100
AcDbLine
 10
0.0
 20
8.0
 30
0.0
 11
1.5
 21
8.0
 31
0.0
  0
LINE
  5
75
330
17
100
AcDbEntity
  8
ESCALERA
100
AcDbLine
 10
0.0
 20
8.25
 30
0.0
 11
1.5
 21
8.25
 31
0.0
  0
LINE
  5
76
330
17
100
AcDbEntity
  8
ESCALERA
100
AcDbLine
 10
0.0
 20
8.5
 30
0.0
 11
1.5
 21
8.5
 31
0.0
  0
LINE
  5
77
330
17
100
AcDbEntity
  8
ESCALERA
100
AcDbLine
 10
0.0
 20
8.75
 30
0.0
 11
1.5
 21
8.75
 31
0.0
  0
LINE
  5
78
330
17
100
AcDbEntity
  8
ESCALERA
100
AcDbLine
 10
0.0
 20
9.0
 30
0.0
 11
1.5
 21
9.0
 31
0.0
  0
LINE
  5
79
330
17
100
AcDbEntity
  8
ESCALERA
100
AcDbLine
 10
0.0
 20
9.25
 30
0.0
 11
1.5
 21
9.25
 31
0.0
  0
TEXT
  5
7A
330
17
100
AcDbEntity
  8
ESCALERA
100
AcDbText
 10
0.75
 20
7.75
 30
0.0
 40
0.15
  1
SUBE
 72
1
 11
0.75
 21
7.75
 31
0.0
100
AcDbText
 73
2
  0
LINE
  5
7B
330
17
100
AcDbEntity
  8
MUROS_INT
100
AcDbLine
 10
1.5
 20
6.0
 30
0.0
 11
1.5
 21
11.0
 31
0.0
  0
TEXT
  5
7C
330
17
100
AcDbEntity
  8
TEXTOS
100
AcDbText
 10
0.75
 20
10.0
 30
0.0
 40
0.15
  1
ESC.
 72
1
 11
0.75
 21
10.0
 31
0.0
100
AcDbText
 73
2
  0
LINE
  5
7D
330
17
100
AcDbEntity
  8
MUROS_INT
100
AcDbLine
 10
1.5
 20
9.5
 30
0.0
 11
10.0
 21
9.5
 31
0.0
  0
TEXT
  5
7E
330
17
100
AcDbEntity
  8
TEXTOS
100
AcDbText
 10
5.75
 20
10.25
 30
0.0
 40
0.2
  1
TERRAZA POSTERIOR
 72
1
 11
5.75
 21
10.25
 31
0.0
100
AcDbText
 73
2
  0
TEXT
  5
7F
330
17
100
AcDbEntity
  8
TEXTOS
100
AcDbText
 10
5.75
 20
9.9
 30
0.0
 40
0.15
  1
12.8 m2
 72
1
 11
5.75
 21
9.9
 31
0.0
100
AcDbText
 73
2
  0
LINE
  5
80
330
17
100
AcDbEntity
  8
VENTANAS
100
AcDbLine
 10
3.0
 20
9.5
 30
0.0
 11
6.5
 21
9.5
 31
0.0
  0
LINE
  5
81
330
17
100
AcDbEntity
  8
PUERTAS
100
AcDbLine
 10
3.0
 20
9.5
 30
0.0
 11
6.5
 21
9.5
 31
0.0
  0
LINE
  5
82
330
17
100
AcDbEntity
  8
PUERTAS
100
AcDbLine
 10
3.0
 20
9.36
 30
0.0
 11
6.5
 21
9.36
 31
0.0
  0
LINE
  5
83
330
17
100
AcDbEntity
  8
PUERTAS
100
AcDbLine
 10
3.0
 20
9.64
 30
0.0
 11
6.5
 21
9.64
 31
0.0
  0
LINE
  5
84
330
17
100
AcDbEntity
  8
MUROS_INT
100
AcDbLine
 10
1.5
 20
6.0
 30
0.0
 11
5.0
 21
6.0
 31
0.0
  0
LINE
  5
85
330
17
100
AcDbEntity
  8
MUROS_INT
100
AcDbLine
 10
5.0
 20
6.0
 30
0.0
 11
5.0
 21
9.5
 31
0.0
  0
TEXT
  5
86
330
17
100
AcDbEntity
  8
TEXTOS
100
AcDbText
 10
3.25
 20
7.75
 30
0.0
 40
0.2
  1
CUARTO
 72
1
 11
3.25
 21
7.75
 31
0.0
100
AcDbText
 73
2
  0
TEXT
  5
87
330
17
100
AcDbEntity
  8
TEXTOS
100
AcDbText
 10
3.25
 20
7.4
 30
0.0
 40
0.15
  1
DE SERVICIO
 72
1
 11
3.25
 21
7.4
 31
0.0
100
AcDbText
 73
2
  0
TEXT
  5
88
330
17
100
AcDbEntity
  8
TEXTOS
100
AcDbText
 10
3.25
 20
7.05
 30
0.0
 40
0.15
  1
12.3 m2
 72
1
 11
3.25
 21
7.05
 31
0.0
100
AcDbText
 73
2
  0
ARC
  5
89
330
17
100
AcDbEntity
  8
PUERTAS
100
AcDbCircle
 10
5.0
 20
7.0
 30
0.0
 40
0.9
100
AcDbArc
 50
0.0
 51
90.0
  0
TEXT
  5
8A
330
17
100
AcDbEntity
  8
TEXTOS
100
AcDbText
 10
7.5
 20
7.25
 30
0.0
 40
0.2
  1
DISTRIBUIDOR
 72
1
 11
7.5
 21
7.25
 31
0.0
100
AcDbText
 73
2
  0
TEXT
  5
8B
330
17
100
AcDbEntity
  8
TEXTOS
100
AcDbText
 10
7.5
 20
6.9
 30
0.0
 40
0.15
  1
17.5 m2
 72
1
 11
7.5
 21
6.9
 31
0.0
100
AcDbText
 73
2
  0
LWPOLYLINE
  5
8C
330
17
100
AcDbEntity
  8
PISCINA
100
AcDbPolyline
 90
5
 70
0
 10
3.0
 20
-1.5
 10
12.0
 20
-1.5
 10
12.0
 20
-5.5
 10
3.0
 20
-5.5
 10
3.0
 20
-1.5
  0
TEXT
  5
8D
330
17
100
AcDbEntity
  8
PISCINA
100
AcDbText
 10
7.5
 20
-3.5
 30
0.0
 40
0.25
  1
PISCINA
 72
1
 11
7.5
 21
-3.5
 31
0.0
100
AcDbText
 73
2
  0
TEXT
  5
8E
330
17
100
AcDbEntity
  8
PISCINA
100
AcDbText
 10
7.5
 20
-3.9
 30
0.0
 40
0.15
  1
9.0 x 4.0 m
 72
1
 11
7.5
 21
-3.9
 31
0.0
100
AcDbText
 73
2
  0
CIRCLE
  5
8F
330
17
100
AcDbEntity
  8
PISCINA
100
AcDbCircle
 10
2.0
 20
-3.5
 30
0.0
 40
1.2
  0
TEXT
  5
90
330
17
100
AcDbEntity
  8
PISCINA
100
AcDbText
 10
2.0
 20
-3.5
 30
0.0
 40
0.15
  1
JACUZZI
 72
1
 11
2.0
 21
-3.5
 31
0.0
100
AcDbText
 73
2
  0
LWPOLYLINE
  5
91
330
17
100
AcDbEntity
  8
TERRAZA
100
AcDbPolyline
 90
5
 70
0
 10
0.0
 20
-0.5
 10
14.0
 20
-0.5
 10
14.0
 20
-6.5
 10
0.0
 20
-6.5
 10
0.0
 20
-0.5
  0
TEXT
  5
92
330
17
100
AcDbEntity
  8
TERRAZA
100
AcDbText
 10
13.0
 20
-4.0
 30
0.0
 40
0.18
  1
DECK
 72
1
 11
13.0
 21
-4.0
 31
0.0
100
AcDbText
 73
2
  0
LINE
  5
93
330
17
100
AcDbEntity
  8
PISCINA
100
AcDbLine
 10
7.0
 20
-1.5
 30
0.0
 11
7.0
 21
-0.5
 31
0.0
  0
LINE
  5
94
330
17
100
AcDbEntity
  8
PISCINA
100
AcDbLine
 10
8.0
 20
-1.5
 30
0.0
 11
8.0
 21
-0.5
 31
0.0
  0
TEXT
  5
95
330
17
100
AcDbEntity
  8
PISCINA
100
AcDbText
 10
7.5
 20
-1.0
 30
0.0
 40
0.12
  1
cascada
 72
1
 11
7.5
 21
-1.0
 31
0.0
100
AcDbText
 73
2
  0
DIMENSION
  5
96
330
17
100
AcDbEntity
  8
COTAS
100
AcDbDimension
280
0
  2
*D1
  3
Standard
 10
0.0
 20
-7.5
 30
0.0
 11
7.0
 21
-7.5
 31
0.0
 70
32
 71
5
  1
<>
100
AcDbAlignedDimension
 13
0.0
 23
0.0
 33
0.0
 14
14.0
 24
0.0
 34
0.0
 50
0.0
100
AcDbRotatedDimension
1001
ACAD
1000
DSTYLE
1002
{
1070
140
1040
0.15
1002
}
  0
DIMENSION
  5
AA
330
17
100
AcDbEntity
  8
COTAS
100
AcDbDimension
280
0
  2
*D2
  3
Standard
 10
-1.5
 20
0.0
 30
0.0
 11
-1.5
 21
5.5
 31
0.0
 70
32
 71
5
  1
<>
100
AcDbAlignedDimension
 13
0.0
 23
0.0
 33
0.0
 14
0.0
 24
11.0
 34
0.0
 50
90.0
100
AcDbRotatedDimension
1001
ACAD
1000
DSTYLE
1002
{
1070
140
1040
0.15
1002
}
  0
DIMENSION
  5
BA
330
17
100
AcDbEntity
  8
COTAS
100
AcDbDimension
280
0
  2
*D3
  3
Standard
 10
0.0
 20
11.6
 30
0.0
 11
1.75
 21
11.6
 31
0.0
 70
32
 71
5
  1
<>
100
AcDbAlignedDimension
 13
0.0
 23
11.0
 33
0.0
 14
3.5
 24
11.0
 34
0.0
 50
0.0
100
AcDbRotatedDimension
1001
ACAD
1000
DSTYLE
1002
{
1070
140
1040
0.15
1002
}
  0
DIMENSION
  5
CA
330
17
100
AcDbEntity
  8
COTAS
100
AcDbDimension
280
0
  2
*D4
  3
Standard
 10
3.5
 20
11.6
 30
0.0
 11
6.75
 21
11.6
 31
0.0
 70
32
 71
5
  1
<>
100
AcDbAlignedDimension
 13
3.5
 23
11.0
 33
0.0
 14
10.0
 24
11.0
 34
0.0
 50
0.0
100
AcDbRotatedDimension
1001
ACAD
1000
DSTYLE
1002
{
1070
140
1040
0.15
1002
}
  0
DIMENSION
  5
DA
330
17
100
AcDbEntity
  8
COTAS
100
AcDbDimension
280
0
  2
*D5
  3
Standard
 10
10.0
 20
11.6
 30
0.0
 11
12.0
 21
11.6
 31
0.0
 70
32
 71
5
  1
<>
100
AcDbAlignedDimension
 13
10.0
 23
11.0
 33
0.0
 14
14.0
 24
11.0
 34
0.0
 50
0.0
100
AcDbRotatedDimension
1001
ACAD
1000
DSTYLE
1002
{
1070
140
1040
0.15
1002
}
  0
DIMENSION
  5
EA
330
17
100
AcDbEntity
  8
COTAS
100
AcDbDimension
280
0
  2
*D6
  3
Standard
 10
14.6
 20
0.0
 30
0.0
 11
14.6
 21
3.0
 31
0.0
 70
32
 71
5
  1
<>
100
AcDbAlignedDimension
 13
14.0
 23
0.0
 33
0.0
 14
14.0
 24
6.0
 34
0.0
 50
90.0
100
AcDbRotatedDimension
1001
ACAD
1000
DSTYLE
1002
{
1070
140
1040
0.15
1002
}
  0
DIMENSION
  5
FA
330
17
100
AcDbEntity
  8
COTAS
100
AcDbDimension
280
0
  2
*D7
  3
Standard
 10
14.6
 20
6.0
 30
0.0
 11
14.6
 21
8.5
 31
0.0
 70
32
 71
5
  1
<>
100
AcDbAlignedDimension
 13
14.0
 23
6.0
 33
0.0
 14
14.0
 24
11.0
 34
0.0
 50
90.0
100
AcDbRotatedDimension
1001
ACAD
1000
DSTYLE
1002
{
1070
140
1040
0.15
1002
}
  0
LWPOLYLINE
  5
10A
330
17
100
AcDbEntity
  8
CAJETIN
100
AcDbPolyline
 90
5
 70
0
 10
16.0
 20
-2.0
 10
24.0
 20
-2.0
 10
24.0
 20
2.5
 10
16.0
 20
2.5
 10
16.0
 20
-2.0
  0
LINE
  5
10B
330
17
100
AcDbEntity
  8
CAJETIN
100
AcDbLine
 10
16.0
 20
1.0
 30
0.0
 11
24.0
 21
1.0
 31
0.0
  0
LINE
  5
10C
330
17
100
AcDbEntity
  8
CAJETIN
100
AcDbLine
 10
16.0
 20
0.0
 30
0.0
 11
24.0
 21
0.0
 31
0.0
  0
LINE
  5
10D
330
17
100
AcDbEntity
  8
CAJETIN
100
AcDbLine
 10
16.0
 20
-1.0
 30
0.0
 11
24.0
 21
-1.0
 31
0.0
  0
TEXT
  5
10E
330
17
100
AcDbEntity
  8
CAJETIN
100
AcDbText
 10
20.0
 20
1.75
 30
0.0
 40
0.28
  1
VILLA MODERNA CONTEMPORANEA
 72
1
 11
20.0
 21
1.75
 31
0.0
100
AcDbText
 73
2
  0
TEXT
  5
10F
330
17
100
AcDbEntity
  8
CAJETIN
100
AcDbText
 10
20.0
 20
0.5
 30
0.0
 40
0.22
  1
PLANTA BAJA - 1er PISO
 72
1
 11
20.0
 21
0.5
 31
0.0
100
AcDbText
 73
2
  0
TEXT
  5
110
330
17
100
AcDbEntity
  8
CAJETIN
100
AcDbText
 10
20.0
 20
-0.5
 30
0.0
 40
0.16
  1
ESCALA: 1:100
 72
1
 11
20.0
 21
-0.5
 31
0.0
100
AcDbText
 73
2
  0
TEXT
  5
111
330
17
100
AcDbEntity
  8
CAJETIN
100
AcDbText
 10
20.0
 20
-1.5
 30
0.0
 40
0.14
  1
Claude Code / DXF Architect
 72
1
 11
20.0
 21
-1.5
 31
0.0
100
AcDbText
 73
2
  0
LINE
  5
112
330
17
100
AcDbEntity
  8
EJES
100
AcDbLine
 10
0.0
 20
-7.0
 30
0.0
 11
0.0
 21
12.0
 31
0.0
  0
CIRCLE
  5
113
330
17
100
AcDbEntity
  8
EJES
100
AcDbCircle
 10
0.0
 20
12.5
 30
0.0
 40
0.4
  0
TEXT
  5
114
330
17
100
AcDbEntity
  8
EJES
100
AcDbText
 10
0.0
 20
12.5
 30
0.0
 40
0.25
  1
A
 72
1
 11
0.0
 21
12.5
 31
0.0
100
AcDbText
 73
2
  0
LINE
  5
115
330
17
100
AcDbEntity
  8
EJES
100
AcDbLine
 10
3.5
 20
-7.0
 30
0.0
 11
3.5
 21
12.0
 31
0.0
  0
CIRCLE
  5
116
330
17
100
AcDbEntity
  8
EJES
100
AcDbCircle
 10
3.5
 20
12.5
 30
0.0
 40
0.4
  0
TEXT
  5
117
330
17
100
AcDbEntity
  8
EJES
100
AcDbText
 10
3.5
 20
12.5
 30
0.0
 40
0.25
  1
B
 72
1
 11
3.5
 21
12.5
 31
0.0
100
AcDbText
 73
2
  0
LINE
  5
118
330
17
100
AcDbEntity
  8
EJES
100
AcDbLine
 10
10.0
 20
-7.0
 30
0.0
 11
10.0
 21
12.0
 31
0.0
  0
CIRCLE
  5
119
330
17
100
AcDbEntity
  8
EJES
100
AcDbCircle
 10
10.0
 20
12.5
 30
0.0
 40
0.4
  0
TEXT
  5
11A
330
17
100
AcDbEntity
  8
EJES
100
AcDbText
 10
10.0
 20
12.5
 30
0.0
 40
0.25
  1
C
 72
1
 11
10.0
 21
12.5
 31
0.0
100
AcDbText
 73
2
  0
LINE
  5
11B
330
17
100
AcDbEntity
  8
EJES
100
AcDbLine
 10
14.0
 20
-7.0
 30
0.0
 11
14.0
 21
12.0
 31
0.0
  0
CIRCLE
  5
11C
330
17
100
AcDbEntity
  8
EJES
100
AcDbCircle
 10
14.0
 20
12.5
 30
0.0
 40
0.4
  0
TEXT
  5
11D
330
17
100
AcDbEntity
  8
EJES
100
AcDbText
 10
14.0
 20
12.5
 30
0.0
 40
0.25
  1
D
 72
1
 11
14.0
 21
12.5
 31
0.0
100
AcDbText
 73
2
  0
LINE
  5
11E
330
17
100
AcDbEntity
  8
EJES
100
AcDbLine
 10
-2.0
 20
0.0
 30
0.0
 11
15.0
 21
0.0
 31
0.0
  0
CIRCLE
  5
11F
330
17
100
AcDbEntity
  8
EJES
100
AcDbCircle
 10
-2.5
 20
0.0
 30
0.0
 40
0.4
  0
TEXT
  5
120
330
17
100
AcDbEntity
  8
EJES
100
AcDbText
 10
-2.5
 20
0.0
 30
0.0
 40
0.25
  1
1
 72
1
 11
-2.5
 21
0.0
 31
0.0
100
AcDbText
 73
2
  0
LINE
  5
121
330
17
100
AcDbEntity
  8
EJES
100
AcDbLine
 10
-2.0
 20
3.0
 30
0.0
 11
15.0
 21
3.0
 31
0.0
  0
CIRCLE
  5
122
330
17
100
AcDbEntity
  8
EJES
100
AcDbCircle
 10
-2.5
 20
3.0
 30
0.0
 40
0.4
  0
TEXT
  5
123
330
17
100
AcDbEntity
  8
EJES
100
AcDbText
 10
-2.5
 20
3.0
 30
0.0
 40
0.25
  1
2
 72
1
 11
-2.5
 21
3.0
 31
0.0
100
AcDbText
 73
2
  0
LINE
  5
124
330
17
100
AcDbEntity
  8
EJES
100
AcDbLine
 10
-2.0
 20
6.0
 30
0.0
 11
15.0
 21
6.0
 31
0.0
  0
CIRCLE
  5
125
330
17
100
AcDbEntity
  8
EJES
100
AcDbCircle
 10
-2.5
 20
6.0
 30
0.0
 40
0.4
  0
TEXT
  5
126
330
17
100
AcDbEntity
  8
EJES
100
AcDbText
 10
-2.5
 20
6.0
 30
0.0
 40
0.25
  1
3
 72
1
 11
-2.5
 21
6.0
 31
0.0
100
AcDbText
 73
2
  0
LINE
  5
127
330
17
100
AcDbEntity
  8
EJES
100
AcDbLine
 10
-2.0
 20
11.0
 30
0.0
 11
15.0
 21
11.0
 31
0.0
  0
CIRCLE
  5
128
330
17
100
AcDbEntity
  8
EJES
100
AcDbCircle
 10
-2.5
 20
11.0
 30
0.0
 40
0.4
  0
TEXT
  5
129
330
17
100
AcDbEntity
  8
EJES
100
AcDbText
 10
-2.5
 20
11.0
 30
0.0
 40
0.25
  1
4
 72
1
 11
-2.5
 21
11.0
 31
0.0
100
AcDbText
 73
2
  0
ENDSEC
  0
SECTION
  2
OBJECTS
  0
DICTIONARY
  5
A
330
0
100
AcDbDictionary
281
1
  3
ACAD_COLOR
350
B
  3
ACAD_GROUP
350
C
  3
ACAD_LAYOUT
350
D
  3
ACAD_MATERIAL
350
E
  3
ACAD_MLEADERSTYLE
350
F
  3
ACAD_MLINESTYLE
350
10
  3
ACAD_PLOTSETTINGS
350
11
  3
ACAD_PLOTSTYLENAME
350
12
  3
ACAD_SCALELIST
350
14
  3
ACAD_TABLESTYLE
350
15
  3
ACAD_VISUALSTYLE
350
16
  3
EZDXF_META
350
2D
  0
DICTIONARY
  5
B
330
A
100
AcDbDictionary
281
1
  0
DICTIONARY
  5
C
330
A
100
AcDbDictionary
281
1
  0
DICTIONARY
  5
D
330
A
100
AcDbDictionary
281
1
  3
Model
350
1A
  3
Layout1
350
1E
  0
DICTIONARY
  5
E
330
A
100
AcDbDictionary
281
1
  3
ByBlock
350
1F
  3
ByLayer
350
20
  3
Global
350
21
  0
DICTIONARY
  5
F
330
A
100
AcDbDictionary
281
1
  3
Standard
350
2C
  0
DICTIONARY
  5
10
330
A
100
AcDbDictionary
281
1
  3
Standard
350
22
  0
DICTIONARY
  5
11
330
A
100
AcDbDictionary
281
1
  0
ACDBDICTIONARYWDFLT
  5
12
330
A
100
AcDbDictionary
281
1
  3
Normal
350
13
100
AcDbDictionaryWithDefault
340
13
  0
ACDBPLACEHOLDER
  5
13
330
12
  0
DICTIONARY
  5
14
330
A
100
AcDbDictionary
281
1
  0
DICTIONARY
  5
15
330
A
100
AcDbDictionary
281
1
  0
DICTIONARY
  5
16
330
A
100
AcDbDictionary
281
1
  0
LAYOUT
  5
1A
330
D
100
AcDbPlotSettings
  1

  4
A3
  6

 40
7.5
 41
20.0
 42
7.5
 43
20.0
 44
420.0
 45
297.0
 46
0.0
 47
0.0
 48
0.0
 49
0.0
140
0.0
141
0.0
142
1.0
143
1.0
 70
1024
 72
1
 73
0
 74
5
  7

 75
16
 76
0
 77
2
 78
300
147
1.0
148
0.0
149
0.0
100
AcDbLayout
  1
Model
 70
1
 71
0
 10
0.0
 20
0.0
 11
420.0
 21
297.0
 12
0.0
 22
0.0
 32
0.0
 14
1e+20
 24
1e+20
 34
1e+20
 15
-1e+20
 25
-1e+20
 35
-1e+20
146
0.0
 13
0.0
 23
0.0
 33
0.0
 16
1.0
 26
0.0
 36
0.0
 17
0.0
 27
1.0
 37
0.0
 76
1
330
17
  0
LAYOUT
  5
1E
330
D
100
AcDbPlotSettings
  1

  4
A3
  6

 40
7.5
 41
20.0
 42
7.5
 43
20.0
 44
420.0
 45
297.0
 46
0.0
 47
0.0
 48
0.0
 49
0.0
140
0.0
141
0.0
142
1.0
143
1.0
 70
0
 72
1
 73
0
 74
5
  7

 75
16
 76
0
 77
2
 78
300
147
1.0
148
0.0
149
0.0
100
AcDbLayout
  1
Layout1
 70
1
 71
1
 10
0.0
 20
0.0
 11
420.0
 21
297.0
 12
0.0
 22
0.0
 32
0.0
 14
1e+20
 24
1e+20
 34
1e+20
 15
-1e+20
 25
-1e+20
 35
-1e+20
146
0.0
 13
0.0
 23
0.0
 33
0.0
 16
1.0
 26
0.0
 36
0.0
 17
0.0
 27
1.0
 37
0.0
 76
1
330
1B
  0
MATERIAL
  5
1F
102
{ACAD_REACTORS
330
E
102
}
330
E
100
AcDbMaterial
  1
ByBlock
  2

 70
0
 40
1.0
 71
1
 41
1.0
 91
-1023410177
 42
1.0
 72
1
  3

 73
1
 74
1
 75
1
 44
0.5
 73
0
 45
1.0
 46
1.0
 77
1
  4

 78
1
 79
1
170
1
 48
1.0
171
1
  6

172
1
173
1
174
1
140
1.0
141
1.0
175
1
  7

176
1
177
1
178
1
143
1.0
179
1
  8

270
1
271
1
272
1
145
1.0
146
1.0
273
1
  9

274
1
275
1
276
1
 42
1.0
 72
1
  3

 73
1
 74
1
 75
1
 94
63
  0
MATERIAL
  5
20
102
{ACAD_REACTORS
330
E
102
}
330
E
100
AcDbMaterial
  1
ByLayer
  2

 70
0
 40
1.0
 71
1
 41
1.0
 91
-1023410177
 42
1.0
 72
1
  3

 73
1
 74
1
 75
1
 44
0.5
 73
0
 45
1.0
 46
1.0
 77
1
  4

 78
1
 79
1
170
1
 48
1.0
171
1
  6

172
1
173
1
174
1
140
1.0
141
1.0
175
1
  7

176
1
177
1
178
1
143
1.0
179
1
  8

270
1
271
1
272
1
145
1.0
146
1.0
273
1
  9

274
1
275
1
276
1
 42
1.0
 72
1
  3

 73
1
 74
1
 75
1
 94
63
  0
MATERIAL
  5
21
102
{ACAD_REACTORS
330
E
102
}
330
E
100
AcDbMaterial
  1
Global
  2

 70
0
 40
1.0
 71
1
 41
1.0
 91
-1023410177
 42
1.0
 72
1
  3

 73
1
 74
1
 75
1
 44
0.5
 73
0
 45
1.0
 46
1.0
 77
1
  4

 78
1
 79
1
170
1
 48
1.0
171
1
  6

172
1
173
1
174
1
140
1.0
141
1.0
175
1
  7

176
1
177
1
178
1
143
1.0
179
1
  8

270
1
271
1
272
1
145
1.0
146
1.0
273
1
  9

274
1
275
1
276
1
 42
1.0
 72
1
  3

 73
1
 74
1
 75
1
 94
63
  0
MLINESTYLE
  5
22
102
{ACAD_REACTORS
330
10
102
}
330
10
100
AcDbMlineStyle
  2
Standard
 70
0
  3

 62
256
 51
90.0
 52
90.0
 71
2
 49
0.5
 62
256
  6
BYLAYER
 49
-0.5
 62
256
  6
BYLAYER
  0
MLEADERSTYLE
  5
2C
102
{ACAD_REACTORS
330
F
102
}
330
F
100
AcDbMLeaderStyle
179
2
170
2
171
1
172
0
 90
2
 40
0.0
 41
0.0
173
1
 91
-1056964608
 92
-2
290
1
 42
2.0
291
1
 43
8.0
  3
Standard
 44
4.0
300

342
29
174
1
175
1
176
0
178
1
 93
-1056964608
 45
4.0
292
0
297
0
 46
4.0
 94
-1056964608
 47
1.0
 49
1.0
140
1.0
294
1
141
0.0
177
0
142
1.0
295
0
296
0
143
3.75
271
0
272
9
273
9
  0
DICTIONARY
  5
2D
330
A
100
AcDbDictionary
280
1
281
1
  3
CREATED_BY_EZDXF
350
2E
  3
WRITTEN_BY_EZDXF
350
12C
  0
DICTIONARYVAR
  5
2E
330
2D
100
DictionaryVariables
280
0
  1
1.4.3 @ 2026-04-06T12:40:41.222717+00:00
  0
DICTIONARYVAR
  5
12C
330
2D
100
DictionaryVariables
280
0
  1
1.4.3 @ 2026-04-06T12:40:41.231853+00:00
  0
ENDSEC
  0
EOF
